<svg xmlns="http://www.w3.org/2000/svg" width="1200.482" height="800.321" viewBox="0 0 1200.482 800.321" fill="#131311">
  <path d="M 758.968 514.339 C 763.416 507.542 791.41 476.855 805.022 456.97 C 810.206 447.818 796.66 427.158 763.149 469.655 C 723.45 519.992 559.436 727.967 541.175 750.376 C 539.837 752.025 538.399 753.505 536.794 754.851 C 528.6 761.816 503.75 779.448 484.453 757.476 C 460.974 730.793 413.014 657.913 442.613 610.672 C 468.499 569.352 565.489 448.659 589.336 419.116 C 593.884 413.463 596.794 406.566 597.028 399.298 C 597.296 391.391 582.914 385.132 580.573 393.376 C 579.503 397.111 574.486 398.187 572.112 401.283 L 295.991 762.893 C 295.121 764.037 294.151 765.147 293.114 766.19 L 276.894 782.678 C 276.459 783.115 276.057 783.586 275.623 784.057 C 270.439 790.013 227.161 834.562 164.954 744.589 C 164.352 743.714 163.716 742.873 163.047 742.065 C 155.622 733.249 106.091 670.295 158.298 618.377 C 158.8 617.906 159.268 617.401 159.703 616.863 L 165.422 610.301 C 180.004 593.612 175.556 567.704 156.325 556.836 C 80.606 514.002 -69.094 393.41 36.458 145.596 C 36.458 145.596 142.579 -80.247 403.783 30.622 C 403.783 30.622 585.322 102.863 465.222 213.934 C 464.185 214.876 463.215 215.919 462.312 216.962 C 453.315 227.494 397.028 288.194 340.974 231.296 C 339.803 230.085 338.532 228.974 337.195 227.965 C 326.292 219.788 278.332 188.967 227.261 234.93 C 227.261 234.93 134.652 311.949 220.305 399.399 C 222.713 401.855 225.489 403.874 228.532 405.489 C 246.158 414.978 306.225 439.843 363.984 377.595 C 435.991 300.004 519.101 214.607 529.269 204.142 C 530.004 203.368 530.774 202.662 531.576 201.989 C 538.667 195.966 574.386 166.794 619.068 150.744 C 704.787 119.956 768.032 158.954 754.787 180.522 C 740.774 203.301 703.215 245.327 684.319 265.953 C 679.035 271.706 681.443 280.993 688.868 283.449 C 689.001 283.483 689.135 283.55 689.269 283.584 C 696.125 285.838 703.65 283.651 708.232 278.066 L 793.617 189.707 C 793.617 189.707 865.59 121.134 965.992 124.532 C 966.962 124.532 967.932 124.532 968.902 124.532 C 982.112 123.758 1086.327 119.283 1043.283 174.331 C 1009.303 217.77 926.393 308.82 922.012 313.228 C 908.333 326.989 917.831 367.03 933.617 350.509 C 946.594 336.915 952.213 329.647 961.677 320.058 C 962.112 319.587 962.581 319.116 963.015 318.645 L 976.326 303.503 C 977.229 302.46 978.065 301.384 978.835 300.24 C 983.751 293.005 1005.758 262.992 1042.28 247.144 C 1094.32 224.566 1178.701 243.678 1178.701 243.678 C 1178.701 243.678 1215.959 256.767 1193.016 287.252 C 1174.989 311.209 1044.487 463.935 1033.149 477.024 C 1032.648 477.596 1032.146 478.134 1031.611 478.672 C 1023.216 487.152 977.363 539.305 911.443 590.18 C 867.965 623.727 805.222 652.428 761.543 615.82 C 753.918 609.427 723.349 581.331 750.774 526.115 L 758.901 514.339 L 758.968 514.339 Z" fill-rule="nonzero"></path>
</svg>